<?xml version="1.0" standalone="no"?>
<!DOCTYPE svg PUBLIC "-//W3C//DTD SVG 20010904//EN"
 "http://www.w3.org/TR/2001/REC-SVG-20010904/DTD/svg10.dtd">
<svg version="1.0" xmlns="http://www.w3.org/2000/svg"
 width="1030.000000pt" height="781.000000pt" viewBox="0 0 1030.000000 781.000000"
 preserveAspectRatio="xMidYMid meet">

<g transform="translate(0.000000,781.000000) scale(0.100000,-0.100000)"
fill="#000000" stroke="none">
<path d="M0 3905 l0 -3905 5150 0 5150 0 0 3905 0 3905 -5150 0 -5150 0 0
-3905z m3405 2390 c320 -229 570 -414 565 -419 -5 -5 -23 2 -42 15 -184 131
-1115 803 -1123 811 -7 7 -4 9 9 6 10 -1 276 -187 591 -413z m-182 -11 c210
-195 383 -359 385 -363 3 -9 -815 -174 -832 -168 -7 3 -26 84 -46 195 l-33
189 69 252 c37 138 70 251 72 251 1 0 175 -160 385 -356z m4201 329 c46 -161
126 -464 126 -479 1 -20 -62 -376 -67 -383 -6 -8 -833 164 -830 173 4 11 750
705 759 706 4 0 9 -8 12 -17z m-1857 -608 c232 -69 424 -125 427 -125 14 0 4
-20 -13 -30 -15 -7 -117 12 -433 85 l-413 94 -420 -98 -420 -99 -29 21 c-16
11 -25 22 -20 24 152 50 873 260 884 258 8 -2 205 -61 437 -130z m-2282 -1176
l89 -142 221 -147 c229 -152 257 -170 240 -153 -5 6 -102 72 -215 147 -113 75
-198 136 -189 136 9 0 106 -4 215 -10 199 -9 319 -14 639 -26 94 -3 173 -9
177 -13 4 -3 64 -103 134 -221 69 -118 135 -231 147 -250 17 -28 -15 -7 -168
110 -105 79 -207 157 -227 174 -35 27 -57 32 -320 77 -156 26 -285 45 -287 43
-2 -2 48 -52 110 -111 63 -59 141 -134 174 -167 33 -33 84 -78 113 -100 45
-35 66 -65 145 -204 51 -90 95 -164 99 -165 15 -4 367 267 356 274 -6 4 5 6
25 6 31 -2 63 -24 209 -142 l173 -140 450 -86 c326 -62 453 -83 462 -75 6 6
57 119 112 251 56 131 107 245 113 251 7 7 173 117 368 244 195 128 357 234
359 236 3 3 -6 28 -18 57 -49 110 -49 95 8 185 29 45 57 82 62 82 4 0 14 -10
20 -22 7 -13 149 -252 317 -532 167 -281 307 -517 310 -525 4 -12 269 -457
388 -652 4 -7 -1000 -659 -1014 -659 -5 0 -30 95 -57 210 -27 116 -51 210 -54
210 -4 0 -103 -63 -221 -139 -118 -76 -294 -190 -391 -252 l-176 -113 13 -55
c8 -31 30 -134 50 -230 l36 -174 -73 -72 c-41 -40 -252 -247 -469 -461 -217
-213 -395 -392 -395 -398 0 -6 -5 -11 -11 -11 -7 0 -45 -32 -85 -72 -41 -39
-85 -80 -99 -91 l-25 -20 -1022 632 c-616 380 -1022 637 -1022 646 0 8 19 96
43 195 44 179 44 180 24 197 -10 10 -239 159 -508 333 l-488 316 132 222 c72
122 158 266 190 319 l58 96 -121 230 c-67 126 -121 234 -120 238 0 9 888 654
899 654 3 0 45 -64 95 -141z m1185 -592 c85 -39 159 -74 164 -78 5 -4 -9 -5
-30 -3 -22 3 -108 11 -193 19 l-155 14 -135 136 -136 136 165 -76 c91 -42 235
-108 320 -148z m-147 -114 c-13 -2 -33 -2 -45 0 -13 2 -3 4 22 4 25 0 35 -2
23 -4z m120 -10 c-7 -2 -21 -2 -30 0 -10 3 -4 5 12 5 17 0 24 -2 18 -5z m110
-10 c-7 -2 -21 -2 -30 0 -10 3 -4 5 12 5 17 0 24 -2 18 -5z m104 -9 c-3 -3
-12 -4 -19 -1 -8 3 -5 6 6 6 11 1 17 -2 13 -5z m1870 -1436 c-3 -8 -6 -5 -6 6
-1 11 2 17 5 13 3 -3 4 -12 1 -19z m10 -40 c-3 -8 -6 -5 -6 6 -1 11 2 17 5 13
3 -3 4 -12 1 -19z m30 -150 c-3 -8 -6 -5 -6 6 -1 11 2 17 5 13 3 -3 4 -12 1
-19z m10 -50 c-3 -8 -6 -5 -6 6 -1 11 2 17 5 13 3 -3 4 -12 1 -19z m40 -190
c-3 -8 -6 -5 -6 6 -1 11 2 17 5 13 3 -3 4 -12 1 -19z m-37 -112 c0 -2 -8 -10
-17 -17 -16 -13 -17 -12 -4 4 13 16 21 21 21 13z m-50 -40 c0 -2 -8 -10 -17
-17 -16 -13 -17 -12 -4 4 13 16 21 21 21 13z m-60 -49 c0 -2 -10 -12 -22 -23
l-23 -19 19 23 c18 21 26 27 26 19z m-60 -50 c0 -2 -10 -12 -22 -23 l-23 -19
19 23 c18 21 26 27 26 19z m-70 -61 c0 -2 -8 -10 -17 -17 -16 -13 -17 -12 -4
4 13 16 21 21 21 13z m-60 -50 c0 -2 -8 -10 -17 -17 -16 -13 -17 -12 -4 4 13
16 21 21 21 13z m-60 -50 c0 -2 -8 -10 -17 -17 -16 -13 -17 -12 -4 4 13 16 21
21 21 13z m-60 -50 c0 -2 -8 -10 -17 -17 -16 -13 -17 -12 -4 4 13 16 21 21 21
13z m-60 -49 c0 -2 -10 -12 -22 -23 l-23 -19 19 23 c18 21 26 27 26 19z m-60
-51 c0 -2 -8 -10 -17 -17 -16 -13 -17 -12 -4 4 13 16 21 21 21 13z m-60 -49
c0 -2 -10 -12 -22 -23 l-23 -19 19 23 c18 21 26 27 26 19z m-60 -50 c0 -2 -10
-12 -22 -23 l-23 -19 19 23 c18 21 26 27 26 19z m-80 -71 c0 -2 -8 -10 -17
-17 -16 -13 -17 -12 -4 4 13 16 21 21 21 13z m-40 -29 c0 -2 -12 -14 -27 -28
l-28 -24 24 28 c23 25 31 32 31 24z m-70 -61 c0 -2 -8 -10 -17 -17 -16 -13
-17 -12 -4 4 13 16 21 21 21 13z m-50 -39 c0 -2 -10 -12 -22 -23 l-23 -19 19
23 c18 21 26 27 26 19z m-70 -60 c0 -2 -10 -12 -22 -23 l-23 -19 19 23 c18 21
26 27 26 19z m-60 -50 c0 -2 -10 -12 -22 -23 l-23 -19 19 23 c18 21 26 27 26
19z m-60 -50 c0 -2 -10 -12 -22 -23 l-23 -19 19 23 c18 21 26 27 26 19z m-60
-50 c0 -2 -10 -12 -22 -23 l-23 -19 19 23 c18 21 26 27 26 19z"/>
<path d="M3488 4653 c7 -3 16 -2 19 1 4 3 -2 6 -13 5 -11 0 -14 -3 -6 -6z"/>
<path d="M4238 4623 c6 -2 18 -2 25 0 6 3 1 5 -13 5 -14 0 -19 -2 -12 -5z"/>
<path d="M3653 4106 c-84 -151 -153 -279 -153 -284 0 -9 509 -724 531 -747 11
-10 -15 64 -170 492 l-92 253 115 224 115 223 33 -20 c18 -10 27 -13 21 -6
-16 20 -78 55 -68 39 5 -8 3 -11 -6 -8 -8 3 -13 10 -12 16 1 5 -5 16 -15 24
-16 12 -16 11 -2 -6 14 -18 13 -19 -3 -13 -9 4 -44 25 -77 47 -32 22 -60 40
-62 40 -2 0 -72 -123 -155 -274z"/>
<path d="M3857 4369 c12 -15 73 -53 73 -46 0 2 -19 17 -42 32 -24 16 -38 22
-31 14z"/>
<path d="M4669 3553 c-56 -145 -168 -447 -166 -449 30 -21 625 -367 632 -367
11 1 584 310 599 324 5 5 -20 99 -59 226 -38 120 -69 219 -70 220 -1 2 -102
19 -225 38 -209 33 -238 35 -462 35 l-238 0 -11 -27z m691 -65 c129 -22 236
-41 238 -43 3 -3 31 -239 27 -243 -1 -1 -112 14 -246 34 l-244 36 -284 -52
c-156 -28 -285 -49 -288 -47 -3 4 138 334 154 360 3 5 96 5 207 2 170 -6 238
-13 436 -47z m-21 -284 c12 -4 -199 -144 -216 -144 -14 0 -223 133 -218 139 3
3 54 15 111 26 104 21 106 21 207 2 56 -10 108 -21 116 -23z"/>
<path d="M4226 3170 c8 -30 59 -250 113 -487 l99 -432 152 -183 c84 -101 160
-184 169 -186 9 -1 99 -8 201 -16 152 -11 217 -11 365 0 99 7 181 13 181 13 1
1 71 83 155 183 l153 182 93 400 c51 221 92 406 90 412 -1 6 -88 -68 -194
-165 l-191 -176 -247 -42 -247 -41 -284 138 -283 138 -3 -64 -3 -65 -155 207
c-85 114 -160 214 -167 223 -8 11 -7 -2 3 -39z m710 -590 l201 -42 244 31
c179 23 247 35 255 46 6 8 13 15 16 15 3 0 -16 -70 -41 -155 -25 -85 -48 -149
-52 -142 -4 6 -11 41 -18 76 -6 35 -13 66 -16 69 -2 3 -98 -3 -212 -13 -203
-18 -212 -18 -395 2 l-187 19 -10 -45 c-5 -25 -13 -63 -16 -84 -4 -21 -11 -35
-15 -30 -15 17 -99 320 -105 383 l-7 65 79 -77 78 -76 201 -42z m-330 -100
c26 -91 52 -170 58 -176 6 -7 38 -26 71 -42 53 -27 79 -33 232 -48 164 -17
179 -17 335 0 145 16 170 22 229 51 l66 33 49 171 c58 202 62 199 65 -60 l2
-180 -86 -68 -87 -68 -264 -7 c-146 -4 -332 -4 -415 0 l-149 7 -86 66 -85 66
-1 121 c0 112 10 308 16 302 1 -2 23 -77 50 -168z"/>
</g>
</svg>
